<svg class="svg-icon" xmlns="http://www.w3.org/2000/svg"><defs><symbol id="weibo" viewBox="0 0 16 16">
            <g stroke="none" stroke-width="1" fill="none" fill-rule="evenodd">
                <g transform="translate(-139.000000, -4036.000000)" fill="currentColor" fill-rule="nonzero">
                    <g transform="translate(139.000000, 4036.000000)">
                        <rect opacity="0" x="0" y="0" width="16" height="16"></rect>
                        <path d="M10.565,3.6325 C10.565,3.6325 12.335,3.445 13.0875,4.5425 C13.84,5.64 13.515,7.02 13.515,7.02 C13.4949253,7.12321653 13.5233752,7.22993417 13.5921672,7.30945968 C13.6609592,7.38898519 13.7624686,7.43250415 13.8675,7.4275 L14.0425,7.4275 C14.2747485,7.42111375 14.4682944,7.24766281 14.5,7.0175 C14.5,7.0175 14.9075,4.8525 13.65,3.6475 C12.67,2.705 11.3275,2.6025 10.79,2.6025 L10.5525,2.6025 C10.3240422,2.60790517 10.1412883,2.79398193 10.1399581,3.0225 L10.1399581,3.2275 C10.1383884,3.33892927 10.183335,3.44597927 10.264011,3.52285878 C10.3446871,3.59973829 10.4537777,3.63947671 10.565,3.6325 L10.565,3.6325 Z M7.08,11.845 C8.315,11.595 9.15,10.565 8.9475,9.5225 C8.7725,8.625 7.8875,8.0225 6.8575,8.0225 C6.6895953,8.02269714 6.52211889,8.03944478 6.3575,8.0725 C5.1225,8.3225 4.2875,9.3525 4.49,10.395 C4.6925,11.4375 5.8475,12.085 7.08,11.845 Z M7.115,9.1625 C7.27228055,9.15431868 7.41868486,9.24275691 7.48462743,9.38578027 C7.55057,9.52880363 7.52275233,9.69756891 7.41439607,9.8118625 C7.3060398,9.9261561 7.13899693,9.96292865 6.99266239,9.90470229 C6.84632786,9.84647593 6.75021264,9.70499305 6.75,9.5475 C6.7484414,9.34193445 6.90964354,9.17189932 7.115,9.1625 L7.115,9.1625 Z M5.75,9.765 C6.13,9.5875 6.5475,9.6775 6.68,9.9675 C6.8125,10.2575 6.625,10.635 6.25,10.8125 C6.12707576,10.8701293 5.99325221,10.9008149 5.8575,10.9025 C5.63577697,10.9190371 5.42511864,10.80342 5.32,10.6075 C5.18,10.32 5.3775,9.9425 5.75,9.765 Z"></path>
                        <path d="M7.305,13.3975 C10.555,13.3975 13.155,11.675 13.155,9.5475 C13.155,7.7525 10.94,7.7525 10.94,7.635 C10.94,7.5175 12.045,6.4775 10.94,5.8275 C10.28,5.4375 9.29,5.6375 8.615,5.8275 C8.37593476,5.92066948 8.13025327,5.9958781 7.88,6.0525 C8.75,4.535 7.51,4.0525 6.88,4.0525 C5.38,4.0525 1.4325,7.41 1.4325,9.535 C1.4325,11.66 4.06,13.3975 7.305,13.3975 L7.305,13.3975 Z M6.7675,7.2625 C8.84,6.97 10.6775,7.845 10.87,9.2125 C11.0625,10.58 9.5375,11.9275 7.4625,12.2125 C7.19993139,12.2492176 6.93512346,12.2675954 6.67,12.2675004 C4.94,12.2675004 3.53,11.4525 3.3625,10.2675 C3.17,8.9 4.695,7.5525 6.7675,7.2625 L6.7675,7.2625 Z"></path>
                        <path d="M12.1975,6.94 L12.4475,6.94 C12.6059157,6.93686389 12.7404701,6.82317064 12.77,6.6675 C12.77,6.6675 13.065,5.525 12.38,4.9 C12.0543816,4.60954157 11.6312754,4.45243883 11.195,4.46 C11.06222,4.45779075 10.9296415,4.47121643 10.8,4.5 C10.6460069,4.52717522 10.5322284,4.65869897 10.5275,4.815 L10.5275,4.9225 C10.523244,4.99648918 10.5520351,5.06855315 10.6061021,5.11924105 C10.6601692,5.16992894 10.7339389,5.19401568 10.8075,5.185 C10.8075,5.185 11.5575,5.0825 11.9225,5.5225 C12.2875,5.9625 12.0025,6.675 12.0025,6.675 C11.9769169,6.73717397 11.9856249,6.80819055 12.0254718,6.86234147 C12.0653188,6.9164924 12.1305304,6.94593085 12.1975,6.94 Z"></path>
                    </g>
                </g>
            </g>
        </symbol></defs>
                    <use href="#weibo"></use>
                </svg>