<svg class="svg-icon" xmlns="http://www.w3.org/2000/svg"><defs><symbol id="weixin" viewBox="0 0 17 16">
            <g stroke="none" stroke-width="1" fill="none" fill-rule="evenodd">
                <g transform="translate(-118.000000, -4036.000000)" fill-rule="nonzero">
                    <g transform="translate(118.000000, 4036.000000)">
                        <rect fill="#000000" opacity="0" x="0" y="0" width="16" height="16"></rect>
                        <path d="M6.33075,2 C3.4003125,2 1,3.99745313 1,6.53370312 C1,7.99773437 1.7986875,9.19954687 3.13267188,10.1306562 L2.5995,11.734625 L4.46289062,10.7997656 C5.129875,10.9321719 5.6646875,11.0676406 6.33003125,11.0676406 C6.49725,11.0676406 6.66329688,11.0594062 6.8276875,11.0462344 C6.72373438,10.6894531 6.66329688,10.3164531 6.66329688,9.92932812 C6.66329688,7.6016875 8.66332812,5.71171875 11.1955781,5.71171875 C11.3682031,5.71171875 11.5391875,5.72442187 11.709,5.74323437 C11.2477969,3.59573437 8.95190625,2 6.33075,2 L6.33075,2 Z M4.5990625,5.5990625 C4.19971875,5.5990625 3.796375,5.33142188 3.796375,4.93184375 C3.796375,4.53060938 4.19971875,4.26673438 4.5990625,4.26673438 C4.99840625,4.26673438 5.26464063,4.53085938 5.26464063,4.93184375 C5.26440625,5.33142188 4.99840625,5.59907813 4.5990625,5.59907813 L4.5990625,5.5990625 Z M8.32984375,5.5990625 C7.93025,5.5990625 7.52925,5.33142188 7.52925,4.93184375 C7.52925,4.53060938 7.93025,4.26673438 8.32982812,4.26673438 C8.73129687,4.26673438 8.9970625,4.53085938 8.9970625,4.93184375 C8.9970625,5.33142188 8.7310625,5.59907813 8.32982812,5.59907813 L8.32984375,5.5990625 Z M16.061125,9.86559375 C16.061125,7.73575 13.9284688,5.99865625 11.5333125,5.99865625 C8.9970625,5.99865625 6.999375,7.73575 6.999375,9.86559375 C6.999375,12.0001562 8.9970625,13.7337187 11.5333125,13.7337187 C12.064125,13.7337187 12.5991719,13.600125 13.1325781,13.4663125 L14.5949687,14.2668906 L14.1939844,12.9345469 C15.2638438,12.1323281 16.061125,11.067875 16.061125,9.86559375 L16.061125,9.86559375 Z M10.0631563,9.19954687 C9.797625,9.19954687 9.52975,8.93590625 9.52975,8.66660938 C9.52975,8.400625 9.797625,8.13296875 10.0631563,8.13296875 C10.4665,8.13296875 10.7303906,8.400625 10.7303906,8.66660938 C10.7303906,8.93590625 10.4665,9.19954687 10.0631563,9.19954687 Z M12.9954687,9.19954687 C12.7318281,9.19954687 12.4658281,8.93590625 12.4658281,8.66660938 C12.4658281,8.400625 12.7318281,8.13296875 12.9954687,8.13296875 C13.3948125,8.13296875 13.6626875,8.400625 13.6626875,8.66660938 C13.6626875,8.93590625 13.3948125,9.19954687 12.9954687,9.19954687 Z" fill="currentColor"></path>
                    </g>
                </g>
            </g>
        </symbol></defs>
                    <use href="#weixin"></use>
                </svg>